<mxfile host="app.diagrams.net" modified="2022-06-17T06:38:34.227Z" agent="5.0 (Macintosh; Intel Mac OS X 10_15_7) AppleWebKit/537.36 (KHTML, like Gecko) Chrome/102.0.5005.61 Safari/537.36" etag="eOeJzPR6wTDewozAwr7k" version="18.2.0" type="github">
  <diagram id="WkIeDWe_TXK0vEZoTfMw" name="第 1 页">
    <mxGraphModel dx="2812" dy="1340" grid="0" gridSize="10" guides="1" tooltips="1" connect="1" arrows="1" fold="1" page="1" pageScale="1" pageWidth="827" pageHeight="1169" math="0" shadow="0">
      <root>
        <mxCell id="0" />
        <mxCell id="1" parent="0" />
        <mxCell id="4F7vRQ4BNf0SAxyivJxw-1" value="1" style="rounded=0;whiteSpace=wrap;html=1;fillColor=#dae8fc;strokeColor=#6c8ebf;" parent="1" vertex="1">
          <mxGeometry x="105" y="233" width="74" height="44" as="geometry" />
        </mxCell>
        <mxCell id="4F7vRQ4BNf0SAxyivJxw-2" value="" style="rounded=0;whiteSpace=wrap;html=1;fillColor=#d5e8d4;strokeColor=#82b366;" parent="1" vertex="1">
          <mxGeometry x="179" y="233" width="74" height="44" as="geometry" />
        </mxCell>
        <mxCell id="4F7vRQ4BNf0SAxyivJxw-6" value="4" style="rounded=0;whiteSpace=wrap;html=1;fillColor=#dae8fc;strokeColor=#6c8ebf;" parent="1" vertex="1">
          <mxGeometry x="253" y="233" width="74" height="44" as="geometry" />
        </mxCell>
        <mxCell id="4F7vRQ4BNf0SAxyivJxw-8" value="" style="rounded=0;whiteSpace=wrap;html=1;fillColor=#d5e8d4;strokeColor=#82b366;" parent="1" vertex="1">
          <mxGeometry x="325" y="233" width="74" height="44" as="geometry" />
        </mxCell>
        <mxCell id="4F7vRQ4BNf0SAxyivJxw-10" value="7" style="rounded=0;whiteSpace=wrap;html=1;fillColor=#dae8fc;strokeColor=#6c8ebf;" parent="1" vertex="1">
          <mxGeometry x="399" y="233" width="74" height="44" as="geometry" />
        </mxCell>
        <mxCell id="4F7vRQ4BNf0SAxyivJxw-12" value="" style="rounded=0;whiteSpace=wrap;html=1;fillColor=#d5e8d4;strokeColor=#82b366;" parent="1" vertex="1">
          <mxGeometry x="473" y="233" width="74" height="44" as="geometry" />
        </mxCell>
        <mxCell id="4F7vRQ4BNf0SAxyivJxw-14" value="10" style="rounded=0;whiteSpace=wrap;html=1;fillColor=#dae8fc;strokeColor=#6c8ebf;" parent="1" vertex="1">
          <mxGeometry x="547" y="233" width="74" height="44" as="geometry" />
        </mxCell>
        <mxCell id="4F7vRQ4BNf0SAxyivJxw-16" value="" style="rounded=0;whiteSpace=wrap;html=1;fillColor=#d5e8d4;strokeColor=#82b366;" parent="1" vertex="1">
          <mxGeometry x="621" y="233" width="74" height="44" as="geometry" />
        </mxCell>
        <mxCell id="4F7vRQ4BNf0SAxyivJxw-19" value="B+Three索引" style="text;html=1;align=center;verticalAlign=middle;resizable=0;points=[];autosize=1;strokeColor=none;fillColor=none;" parent="1" vertex="1">
          <mxGeometry x="102" y="182" width="80" height="18" as="geometry" />
        </mxCell>
        <mxCell id="4F7vRQ4BNf0SAxyivJxw-21" value="������" style="text;html=1;align=center;verticalAlign=middle;resizable=0;points=[];autosize=1;strokeColor=none;fillColor=none;" parent="1" vertex="1">
          <mxGeometry x="126" y="211" width="22" height="18" as="geometry" />
        </mxCell>
        <mxCell id="4F7vRQ4BNf0SAxyivJxw-23" value="" style="shape=flexArrow;endArrow=classic;html=1;rounded=0;strokeColor=#FF3333;" parent="1" edge="1">
          <mxGeometry width="50" height="50" relative="1" as="geometry">
            <mxPoint x="141.5" y="334" as="sourcePoint" />
            <mxPoint x="141.5" y="281" as="targetPoint" />
          </mxGeometry>
        </mxCell>
        <mxCell id="4F7vRQ4BNf0SAxyivJxw-24" value="1" style="rounded=0;whiteSpace=wrap;html=1;fillColor=#dae8fc;strokeColor=#6c8ebf;" parent="1" vertex="1">
          <mxGeometry x="139" y="455" width="74" height="44" as="geometry" />
        </mxCell>
        <mxCell id="4F7vRQ4BNf0SAxyivJxw-25" value="" style="rounded=0;whiteSpace=wrap;html=1;fillColor=#d5e8d4;strokeColor=#82b366;" parent="1" vertex="1">
          <mxGeometry x="213" y="455" width="74" height="44" as="geometry" />
        </mxCell>
        <mxCell id="4F7vRQ4BNf0SAxyivJxw-26" value="4" style="rounded=0;whiteSpace=wrap;html=1;fillColor=#dae8fc;strokeColor=#6c8ebf;" parent="1" vertex="1">
          <mxGeometry x="287" y="455" width="74" height="44" as="geometry" />
        </mxCell>
        <mxCell id="4F7vRQ4BNf0SAxyivJxw-27" value="" style="rounded=0;whiteSpace=wrap;html=1;fillColor=#d5e8d4;strokeColor=#82b366;" parent="1" vertex="1">
          <mxGeometry x="359" y="455" width="74" height="44" as="geometry" />
        </mxCell>
        <mxCell id="4F7vRQ4BNf0SAxyivJxw-28" value="7" style="rounded=0;whiteSpace=wrap;html=1;fillColor=#dae8fc;strokeColor=#6c8ebf;" parent="1" vertex="1">
          <mxGeometry x="433" y="455" width="74" height="44" as="geometry" />
        </mxCell>
        <mxCell id="4F7vRQ4BNf0SAxyivJxw-29" value="" style="rounded=0;whiteSpace=wrap;html=1;fillColor=#d5e8d4;strokeColor=#82b366;" parent="1" vertex="1">
          <mxGeometry x="507" y="455" width="74" height="44" as="geometry" />
        </mxCell>
        <mxCell id="4F7vRQ4BNf0SAxyivJxw-30" value="10" style="rounded=0;whiteSpace=wrap;html=1;fillColor=#dae8fc;strokeColor=#6c8ebf;" parent="1" vertex="1">
          <mxGeometry x="581" y="455" width="74" height="44" as="geometry" />
        </mxCell>
        <mxCell id="4F7vRQ4BNf0SAxyivJxw-31" value="" style="rounded=0;whiteSpace=wrap;html=1;fillColor=#d5e8d4;strokeColor=#82b366;" parent="1" vertex="1">
          <mxGeometry x="655" y="455" width="74" height="44" as="geometry" />
        </mxCell>
        <mxCell id="4F7vRQ4BNf0SAxyivJxw-32" value="B+Three索引：加间隙锁" style="text;html=1;align=center;verticalAlign=middle;resizable=0;points=[];autosize=1;strokeColor=none;fillColor=none;" parent="1" vertex="1">
          <mxGeometry x="141" y="410" width="140" height="18" as="geometry" />
        </mxCell>
        <mxCell id="4F7vRQ4BNf0SAxyivJxw-35" value="" style="strokeWidth=2;html=1;shape=mxgraph.flowchart.annotation_2;align=left;labelPosition=right;pointerEvents=1;direction=north;" parent="1" vertex="1">
          <mxGeometry x="327" y="505" width="144" height="64" as="geometry" />
        </mxCell>
        <mxCell id="4F7vRQ4BNf0SAxyivJxw-39" value="（4,7）" style="text;html=1;align=center;verticalAlign=middle;resizable=0;points=[];autosize=1;strokeColor=none;fillColor=none;" parent="1" vertex="1">
          <mxGeometry x="373.5" y="575.5" width="51" height="18" as="geometry" />
        </mxCell>
        <mxCell id="4F7vRQ4BNf0SAxyivJxw-40" value="������" style="text;html=1;align=center;verticalAlign=middle;resizable=0;points=[];autosize=1;strokeColor=none;fillColor=none;" parent="1" vertex="1">
          <mxGeometry x="385" y="514" width="22" height="18" as="geometry" />
        </mxCell>
        <mxCell id="4F7vRQ4BNf0SAxyivJxw-41" value="1" style="rounded=0;whiteSpace=wrap;html=1;fillColor=#dae8fc;strokeColor=#6c8ebf;" parent="1" vertex="1">
          <mxGeometry x="121" y="664" width="74" height="44" as="geometry" />
        </mxCell>
        <mxCell id="4F7vRQ4BNf0SAxyivJxw-42" value="" style="rounded=0;whiteSpace=wrap;html=1;fillColor=#d5e8d4;strokeColor=#82b366;" parent="1" vertex="1">
          <mxGeometry x="195" y="664" width="74" height="44" as="geometry" />
        </mxCell>
        <mxCell id="4F7vRQ4BNf0SAxyivJxw-43" value="4" style="rounded=0;whiteSpace=wrap;html=1;fillColor=#dae8fc;strokeColor=#6c8ebf;" parent="1" vertex="1">
          <mxGeometry x="269" y="664" width="74" height="44" as="geometry" />
        </mxCell>
        <mxCell id="4F7vRQ4BNf0SAxyivJxw-44" value="" style="rounded=0;whiteSpace=wrap;html=1;fillColor=#d5e8d4;strokeColor=#82b366;" parent="1" vertex="1">
          <mxGeometry x="341" y="664" width="74" height="44" as="geometry" />
        </mxCell>
        <mxCell id="4F7vRQ4BNf0SAxyivJxw-45" value="7" style="rounded=0;whiteSpace=wrap;html=1;fillColor=#dae8fc;strokeColor=#6c8ebf;" parent="1" vertex="1">
          <mxGeometry x="415" y="664" width="74" height="44" as="geometry" />
        </mxCell>
        <mxCell id="4F7vRQ4BNf0SAxyivJxw-46" value="" style="rounded=0;whiteSpace=wrap;html=1;fillColor=#d5e8d4;strokeColor=#82b366;" parent="1" vertex="1">
          <mxGeometry x="489" y="664" width="74" height="44" as="geometry" />
        </mxCell>
        <mxCell id="4F7vRQ4BNf0SAxyivJxw-47" value="10" style="rounded=0;whiteSpace=wrap;html=1;fillColor=#dae8fc;strokeColor=#6c8ebf;" parent="1" vertex="1">
          <mxGeometry x="563" y="664" width="74" height="44" as="geometry" />
        </mxCell>
        <mxCell id="4F7vRQ4BNf0SAxyivJxw-48" value="" style="rounded=0;whiteSpace=wrap;html=1;fillColor=#d5e8d4;strokeColor=#82b366;" parent="1" vertex="1">
          <mxGeometry x="637" y="664" width="74" height="44" as="geometry" />
        </mxCell>
        <mxCell id="4F7vRQ4BNf0SAxyivJxw-49" value="B+Three索引：next-key Lock" style="text;html=1;align=center;verticalAlign=middle;resizable=0;points=[];autosize=1;strokeColor=none;fillColor=none;" parent="1" vertex="1">
          <mxGeometry x="110" y="619" width="166" height="18" as="geometry" />
        </mxCell>
        <mxCell id="4F7vRQ4BNf0SAxyivJxw-53" value="next-key Lock 索引区间划分为" style="text;html=1;align=center;verticalAlign=middle;resizable=0;points=[];autosize=1;strokeColor=none;fillColor=none;" parent="1" vertex="1">
          <mxGeometry x="123" y="737" width="171" height="18" as="geometry" />
        </mxCell>
        <mxCell id="4F7vRQ4BNf0SAxyivJxw-54" value="&lt;blockquote style=&quot;margin: 0 0 0 40px; border: none; padding: 0px;&quot;&gt;&lt;blockquote style=&quot;margin: 0 0 0 40px; border: none; padding: 0px;&quot;&gt;&lt;blockquote style=&quot;margin: 0 0 0 40px; border: none; padding: 0px;&quot;&gt;（-∞，1]&amp;nbsp;&amp;nbsp;&lt;span style=&quot;white-space: pre;&quot;&gt; &lt;/span&gt;&lt;span style=&quot;white-space: pre;&quot;&gt; &lt;/span&gt;(1,4]&lt;span style=&quot;white-space: pre;&quot;&gt; &lt;span style=&quot;white-space: pre;&quot;&gt;&lt;span style=&quot;white-space: pre;&quot;&gt; &lt;/span&gt;&lt;/span&gt;&lt;/span&gt;&lt;font color=&quot;#ff3333&quot;&gt;(4,7]&amp;nbsp; &lt;span style=&quot;white-space: pre;&quot;&gt; &lt;/span&gt;（7,10]&amp;nbsp; &amp;nbsp; &amp;nbsp; &amp;nbsp; &amp;nbsp; &amp;nbsp; &amp;nbsp; &amp;nbsp;(10,+∞&lt;/font&gt;]&lt;/blockquote&gt;&lt;/blockquote&gt;&lt;/blockquote&gt;" style="whiteSpace=wrap;html=1;" parent="1" vertex="1">
          <mxGeometry x="153" y="769" width="512.5" height="71" as="geometry" />
        </mxCell>
        <mxCell id="4F7vRQ4BNf0SAxyivJxw-55" value="" style="rounded=0;whiteSpace=wrap;html=1;fontColor=#FF3333;" parent="1" vertex="1">
          <mxGeometry x="685" y="869" width="544" height="77" as="geometry" />
        </mxCell>
        <mxCell id="4F7vRQ4BNf0SAxyivJxw-56" value="&lt;font color=&quot;#000000&quot;&gt;p&lt;/font&gt;" style="rounded=0;whiteSpace=wrap;html=1;fillColor=#f8cecc;strokeColor=#b85450;" parent="1" vertex="1">
          <mxGeometry x="798" y="887" width="69" height="49.5" as="geometry" />
        </mxCell>
        <mxCell id="4F7vRQ4BNf0SAxyivJxw-57" value="&lt;font color=&quot;#000000&quot;&gt;3&lt;/font&gt;" style="rounded=0;whiteSpace=wrap;html=1;fontColor=#FF3333;" parent="1" vertex="1">
          <mxGeometry x="867" y="887" width="69" height="49.5" as="geometry" />
        </mxCell>
        <mxCell id="4F7vRQ4BNf0SAxyivJxw-59" value="&lt;font color=&quot;#000000&quot;&gt;p&lt;/font&gt;" style="rounded=0;whiteSpace=wrap;html=1;strokeColor=#b85450;fillColor=#f8cecc;" parent="1" vertex="1">
          <mxGeometry x="936" y="887" width="69" height="49.5" as="geometry" />
        </mxCell>
        <mxCell id="4F7vRQ4BNf0SAxyivJxw-60" value="&lt;font color=&quot;#000000&quot;&gt;p&lt;/font&gt;" style="rounded=0;whiteSpace=wrap;html=1;fillColor=#f8cecc;strokeColor=#b85450;" parent="1" vertex="1">
          <mxGeometry x="1074" y="887" width="69" height="49.5" as="geometry" />
        </mxCell>
        <mxCell id="4F7vRQ4BNf0SAxyivJxw-61" value="&lt;font color=&quot;#000000&quot;&gt;7&lt;/font&gt;" style="rounded=0;whiteSpace=wrap;html=1;fontColor=#FF3333;" parent="1" vertex="1">
          <mxGeometry x="1005" y="887" width="69" height="49.5" as="geometry" />
        </mxCell>
        <mxCell id="4F7vRQ4BNf0SAxyivJxw-63" value="&lt;span style=&quot;color: rgb(0, 0, 0);&quot;&gt;p&lt;/span&gt;" style="rounded=0;whiteSpace=wrap;html=1;fillColor=#f8cecc;strokeColor=#b85450;" parent="1" vertex="1">
          <mxGeometry x="128.5" y="1133" width="69" height="49.5" as="geometry" />
        </mxCell>
        <mxCell id="4F7vRQ4BNf0SAxyivJxw-64" value="2" style="rounded=0;whiteSpace=wrap;html=1;fontColor=#FF3333;" parent="1" vertex="1">
          <mxGeometry x="197.5" y="1133" width="69" height="49.5" as="geometry" />
        </mxCell>
        <mxCell id="4F7vRQ4BNf0SAxyivJxw-65" value="&lt;span style=&quot;color: rgb(0, 0, 0);&quot;&gt;p&lt;/span&gt;" style="rounded=0;whiteSpace=wrap;html=1;fillColor=#f8cecc;strokeColor=#b85450;" parent="1" vertex="1">
          <mxGeometry x="266.5" y="1133" width="69" height="49.5" as="geometry" />
        </mxCell>
        <mxCell id="4F7vRQ4BNf0SAxyivJxw-66" value="p" style="rounded=0;whiteSpace=wrap;html=1;fillColor=#f8cecc;strokeColor=#b85450;" parent="1" vertex="1">
          <mxGeometry x="575" y="1129" width="69" height="49.5" as="geometry" />
        </mxCell>
        <mxCell id="4F7vRQ4BNf0SAxyivJxw-67" value="5" style="rounded=0;whiteSpace=wrap;html=1;fontColor=#FF3333;" parent="1" vertex="1">
          <mxGeometry x="644" y="1129" width="69" height="49.5" as="geometry" />
        </mxCell>
        <mxCell id="4F7vRQ4BNf0SAxyivJxw-68" value="&lt;span style=&quot;color: rgb(0, 0, 0);&quot;&gt;p&lt;/span&gt;" style="rounded=0;whiteSpace=wrap;html=1;fillColor=#f8cecc;strokeColor=#b85450;" parent="1" vertex="1">
          <mxGeometry x="713" y="1129" width="69" height="49.5" as="geometry" />
        </mxCell>
        <mxCell id="4F7vRQ4BNf0SAxyivJxw-69" value="&lt;span style=&quot;color: rgb(0, 0, 0);&quot;&gt;p&lt;/span&gt;" style="rounded=0;whiteSpace=wrap;html=1;fillColor=#f8cecc;strokeColor=#b85450;" parent="1" vertex="1">
          <mxGeometry x="1171" y="1129" width="69" height="49.5" as="geometry" />
        </mxCell>
        <mxCell id="4F7vRQ4BNf0SAxyivJxw-70" value="9" style="rounded=0;whiteSpace=wrap;html=1;fontColor=#FF3333;" parent="1" vertex="1">
          <mxGeometry x="1240" y="1129" width="69" height="49.5" as="geometry" />
        </mxCell>
        <mxCell id="4F7vRQ4BNf0SAxyivJxw-71" value="&lt;span style=&quot;color: rgb(0, 0, 0);&quot;&gt;p&lt;/span&gt;" style="rounded=0;whiteSpace=wrap;html=1;fillColor=#f8cecc;strokeColor=#b85450;" parent="1" vertex="1">
          <mxGeometry x="1309" y="1129" width="69" height="49.5" as="geometry" />
        </mxCell>
        <mxCell id="4F7vRQ4BNf0SAxyivJxw-73" value="" style="rounded=0;whiteSpace=wrap;html=1;fontColor=#FF3333;" parent="1" vertex="1">
          <mxGeometry x="59" y="1281" width="122" height="196" as="geometry" />
        </mxCell>
        <mxCell id="4F7vRQ4BNf0SAxyivJxw-75" value="1" style="rounded=0;whiteSpace=wrap;html=1;fontColor=#FF3333;" parent="1" vertex="1">
          <mxGeometry x="84" y="1304" width="69" height="49.5" as="geometry" />
        </mxCell>
        <mxCell id="4F7vRQ4BNf0SAxyivJxw-76" value="张三" style="rounded=0;whiteSpace=wrap;html=1;fillColor=#dae8fc;strokeColor=#6c8ebf;" parent="1" vertex="1">
          <mxGeometry x="84" y="1353.5" width="69" height="49.5" as="geometry" />
        </mxCell>
        <mxCell id="4F7vRQ4BNf0SAxyivJxw-77" value="男" style="rounded=0;whiteSpace=wrap;html=1;fillColor=#dae8fc;strokeColor=#6c8ebf;" parent="1" vertex="1">
          <mxGeometry x="84" y="1403" width="69" height="49.5" as="geometry" />
        </mxCell>
        <mxCell id="4F7vRQ4BNf0SAxyivJxw-78" value="" style="rounded=0;whiteSpace=wrap;html=1;fontColor=#FF3333;" parent="1" vertex="1">
          <mxGeometry x="253" y="1280.25" width="122" height="196" as="geometry" />
        </mxCell>
        <mxCell id="4F7vRQ4BNf0SAxyivJxw-79" value="2" style="rounded=0;whiteSpace=wrap;html=1;fontColor=#FF3333;" parent="1" vertex="1">
          <mxGeometry x="278" y="1301.25" width="69" height="51.5" as="geometry" />
        </mxCell>
        <mxCell id="4F7vRQ4BNf0SAxyivJxw-80" value="李四" style="rounded=0;whiteSpace=wrap;html=1;fillColor=#dae8fc;strokeColor=#6c8ebf;" parent="1" vertex="1">
          <mxGeometry x="278" y="1352.75" width="69" height="49.5" as="geometry" />
        </mxCell>
        <mxCell id="4F7vRQ4BNf0SAxyivJxw-81" value="女" style="rounded=0;whiteSpace=wrap;html=1;fillColor=#dae8fc;strokeColor=#6c8ebf;" parent="1" vertex="1">
          <mxGeometry x="278" y="1402.25" width="69" height="49.5" as="geometry" />
        </mxCell>
        <mxCell id="4F7vRQ4BNf0SAxyivJxw-82" value="" style="rounded=0;whiteSpace=wrap;html=1;fontColor=#FF3333;" parent="1" vertex="1">
          <mxGeometry x="444" y="1287.75" width="177" height="199" as="geometry" />
        </mxCell>
        <mxCell id="4F7vRQ4BNf0SAxyivJxw-83" value="3" style="rounded=0;whiteSpace=wrap;html=1;fontColor=#FF3333;" parent="1" vertex="1">
          <mxGeometry x="461" y="1311.75" width="68" height="49.5" as="geometry" />
        </mxCell>
        <mxCell id="4F7vRQ4BNf0SAxyivJxw-84" value="李贝" style="rounded=0;whiteSpace=wrap;html=1;fillColor=#dae8fc;strokeColor=#6c8ebf;" parent="1" vertex="1">
          <mxGeometry x="460" y="1361.25" width="69" height="49.5" as="geometry" />
        </mxCell>
        <mxCell id="4F7vRQ4BNf0SAxyivJxw-85" value="男" style="rounded=0;whiteSpace=wrap;html=1;fillColor=#dae8fc;strokeColor=#6c8ebf;" parent="1" vertex="1">
          <mxGeometry x="460" y="1410.75" width="69" height="49.5" as="geometry" />
        </mxCell>
        <mxCell id="4F7vRQ4BNf0SAxyivJxw-86" value="4" style="rounded=0;whiteSpace=wrap;html=1;fontColor=#FF3333;" parent="1" vertex="1">
          <mxGeometry x="530" y="1310.75" width="68" height="49.5" as="geometry" />
        </mxCell>
        <mxCell id="4F7vRQ4BNf0SAxyivJxw-87" value="李贺" style="rounded=0;whiteSpace=wrap;html=1;fillColor=#dae8fc;strokeColor=#6c8ebf;" parent="1" vertex="1">
          <mxGeometry x="529" y="1360.25" width="69" height="49.5" as="geometry" />
        </mxCell>
        <mxCell id="4F7vRQ4BNf0SAxyivJxw-88" value="女" style="rounded=0;whiteSpace=wrap;html=1;fillColor=#dae8fc;strokeColor=#6c8ebf;" parent="1" vertex="1">
          <mxGeometry x="529" y="1409.75" width="69" height="49.5" as="geometry" />
        </mxCell>
        <mxCell id="4F7vRQ4BNf0SAxyivJxw-89" value="" style="rounded=0;whiteSpace=wrap;html=1;fontColor=#FF3333;" parent="1" vertex="1">
          <mxGeometry x="722" y="1283.25" width="177" height="199" as="geometry" />
        </mxCell>
        <mxCell id="4F7vRQ4BNf0SAxyivJxw-90" value="5" style="rounded=0;whiteSpace=wrap;html=1;fontColor=#FF3333;" parent="1" vertex="1">
          <mxGeometry x="739" y="1307.25" width="68" height="49.5" as="geometry" />
        </mxCell>
        <mxCell id="4F7vRQ4BNf0SAxyivJxw-91" value="王五" style="rounded=0;whiteSpace=wrap;html=1;fillColor=#dae8fc;strokeColor=#6c8ebf;" parent="1" vertex="1">
          <mxGeometry x="738" y="1356.75" width="69" height="49.5" as="geometry" />
        </mxCell>
        <mxCell id="4F7vRQ4BNf0SAxyivJxw-92" value="data" style="rounded=0;whiteSpace=wrap;html=1;fillColor=#dae8fc;strokeColor=#6c8ebf;" parent="1" vertex="1">
          <mxGeometry x="738" y="1406.25" width="69" height="49.5" as="geometry" />
        </mxCell>
        <mxCell id="4F7vRQ4BNf0SAxyivJxw-93" value="6" style="rounded=0;whiteSpace=wrap;html=1;fontColor=#FF3333;" parent="1" vertex="1">
          <mxGeometry x="808" y="1306.25" width="68" height="49.5" as="geometry" />
        </mxCell>
        <mxCell id="4F7vRQ4BNf0SAxyivJxw-94" value="可可" style="rounded=0;whiteSpace=wrap;html=1;fillColor=#dae8fc;strokeColor=#6c8ebf;" parent="1" vertex="1">
          <mxGeometry x="807" y="1355.75" width="69" height="49.5" as="geometry" />
        </mxCell>
        <mxCell id="4F7vRQ4BNf0SAxyivJxw-95" value="&lt;span style=&quot;&quot;&gt;data&lt;/span&gt;" style="rounded=0;whiteSpace=wrap;html=1;fillColor=#dae8fc;strokeColor=#6c8ebf;" parent="1" vertex="1">
          <mxGeometry x="807" y="1405.25" width="69" height="49.5" as="geometry" />
        </mxCell>
        <mxCell id="4F7vRQ4BNf0SAxyivJxw-96" value="" style="rounded=0;whiteSpace=wrap;html=1;fontColor=#FF3333;" parent="1" vertex="1">
          <mxGeometry x="1075" y="1281" width="177" height="199" as="geometry" />
        </mxCell>
        <mxCell id="4F7vRQ4BNf0SAxyivJxw-97" value="7" style="rounded=0;whiteSpace=wrap;html=1;fontColor=#FF3333;" parent="1" vertex="1">
          <mxGeometry x="1092" y="1305" width="68" height="49.5" as="geometry" />
        </mxCell>
        <mxCell id="4F7vRQ4BNf0SAxyivJxw-98" value="&lt;span style=&quot;&quot;&gt;data&lt;/span&gt;" style="rounded=0;whiteSpace=wrap;html=1;fillColor=#dae8fc;strokeColor=#6c8ebf;" parent="1" vertex="1">
          <mxGeometry x="1091" y="1354.5" width="69" height="49.5" as="geometry" />
        </mxCell>
        <mxCell id="4F7vRQ4BNf0SAxyivJxw-99" value="&lt;span style=&quot;&quot;&gt;data&lt;/span&gt;" style="rounded=0;whiteSpace=wrap;html=1;fillColor=#dae8fc;strokeColor=#6c8ebf;" parent="1" vertex="1">
          <mxGeometry x="1091" y="1404" width="69" height="49.5" as="geometry" />
        </mxCell>
        <mxCell id="4F7vRQ4BNf0SAxyivJxw-100" value="8" style="rounded=0;whiteSpace=wrap;html=1;fontColor=#FF3333;" parent="1" vertex="1">
          <mxGeometry x="1161" y="1304" width="68" height="49.5" as="geometry" />
        </mxCell>
        <mxCell id="4F7vRQ4BNf0SAxyivJxw-101" value="&lt;span style=&quot;&quot;&gt;data&lt;/span&gt;" style="rounded=0;whiteSpace=wrap;html=1;fillColor=#dae8fc;strokeColor=#6c8ebf;" parent="1" vertex="1">
          <mxGeometry x="1160" y="1353.5" width="69" height="49.5" as="geometry" />
        </mxCell>
        <mxCell id="4F7vRQ4BNf0SAxyivJxw-102" value="&lt;meta charset=&quot;utf-8&quot;&gt;&lt;span style=&quot;color: rgb(255, 51, 51); font-family: Helvetica; font-size: 12px; font-style: normal; font-variant-ligatures: normal; font-variant-caps: normal; font-weight: 400; letter-spacing: normal; orphans: 2; text-align: center; text-indent: 0px; text-transform: none; widows: 2; word-spacing: 0px; -webkit-text-stroke-width: 0px; background-color: rgb(248, 249, 250); text-decoration-thickness: initial; text-decoration-style: initial; text-decoration-color: initial; float: none; display: inline !important;&quot;&gt;data&lt;/span&gt;" style="rounded=0;whiteSpace=wrap;html=1;fillColor=#dae8fc;strokeColor=#6c8ebf;" parent="1" vertex="1">
          <mxGeometry x="1160" y="1403" width="69" height="49.5" as="geometry" />
        </mxCell>
        <mxCell id="4F7vRQ4BNf0SAxyivJxw-103" value="" style="rounded=0;whiteSpace=wrap;html=1;fontColor=#FF3333;" parent="1" vertex="1">
          <mxGeometry x="1361" y="1281" width="177" height="199" as="geometry" />
        </mxCell>
        <mxCell id="4F7vRQ4BNf0SAxyivJxw-104" value="9" style="rounded=0;whiteSpace=wrap;html=1;fontColor=#FF3333;" parent="1" vertex="1">
          <mxGeometry x="1378" y="1305" width="68" height="49.5" as="geometry" />
        </mxCell>
        <mxCell id="4F7vRQ4BNf0SAxyivJxw-105" value="&lt;meta charset=&quot;utf-8&quot;&gt;&lt;span style=&quot;color: rgb(255, 51, 51); font-family: Helvetica; font-size: 12px; font-style: normal; font-variant-ligatures: normal; font-variant-caps: normal; font-weight: 400; letter-spacing: normal; orphans: 2; text-align: center; text-indent: 0px; text-transform: none; widows: 2; word-spacing: 0px; -webkit-text-stroke-width: 0px; background-color: rgb(248, 249, 250); text-decoration-thickness: initial; text-decoration-style: initial; text-decoration-color: initial; float: none; display: inline !important;&quot;&gt;data&lt;/span&gt;" style="rounded=0;whiteSpace=wrap;html=1;fillColor=#dae8fc;strokeColor=#6c8ebf;" parent="1" vertex="1">
          <mxGeometry x="1377" y="1354.5" width="69" height="49.5" as="geometry" />
        </mxCell>
        <mxCell id="4F7vRQ4BNf0SAxyivJxw-106" value="&lt;span style=&quot;&quot;&gt;data&lt;/span&gt;" style="rounded=0;whiteSpace=wrap;html=1;fillColor=#dae8fc;strokeColor=#6c8ebf;" parent="1" vertex="1">
          <mxGeometry x="1377" y="1404" width="69" height="49.5" as="geometry" />
        </mxCell>
        <mxCell id="4F7vRQ4BNf0SAxyivJxw-107" value="10" style="rounded=0;whiteSpace=wrap;html=1;fontColor=#FF3333;" parent="1" vertex="1">
          <mxGeometry x="1447" y="1304" width="68" height="49.5" as="geometry" />
        </mxCell>
        <mxCell id="4F7vRQ4BNf0SAxyivJxw-108" value="&lt;span style=&quot;&quot;&gt;data&lt;/span&gt;" style="rounded=0;whiteSpace=wrap;html=1;fillColor=#dae8fc;strokeColor=#6c8ebf;" parent="1" vertex="1">
          <mxGeometry x="1446" y="1353.5" width="69" height="49.5" as="geometry" />
        </mxCell>
        <mxCell id="4F7vRQ4BNf0SAxyivJxw-109" value="&lt;span style=&quot;&quot;&gt;data&lt;/span&gt;" style="rounded=0;whiteSpace=wrap;html=1;fillColor=#dae8fc;strokeColor=#6c8ebf;" parent="1" vertex="1">
          <mxGeometry x="1446" y="1403" width="69" height="49.5" as="geometry" />
        </mxCell>
        <mxCell id="4F7vRQ4BNf0SAxyivJxw-112" value="" style="endArrow=none;html=1;rounded=0;fontFamily=Helvetica;fontSize=12;fontColor=#000000;strokeColor=#000000;" parent="1" edge="1">
          <mxGeometry width="50" height="50" relative="1" as="geometry">
            <mxPoint x="688" y="1122" as="sourcePoint" />
            <mxPoint x="989" y="936" as="targetPoint" />
          </mxGeometry>
        </mxCell>
        <mxCell id="4F7vRQ4BNf0SAxyivJxw-113" value="" style="endArrow=none;html=1;rounded=0;fontFamily=Helvetica;fontSize=12;fontColor=#000000;strokeColor=#000000;entryX=0.75;entryY=1;entryDx=0;entryDy=0;" parent="1" target="4F7vRQ4BNf0SAxyivJxw-60" edge="1">
          <mxGeometry width="50" height="50" relative="1" as="geometry">
            <mxPoint x="1287" y="1121" as="sourcePoint" />
            <mxPoint x="1166" y="988" as="targetPoint" />
          </mxGeometry>
        </mxCell>
        <mxCell id="4F7vRQ4BNf0SAxyivJxw-114" value="" style="endArrow=none;html=1;rounded=0;fontFamily=Helvetica;fontSize=12;fontColor=#000000;strokeColor=#000000;exitX=0.5;exitY=0;exitDx=0;exitDy=0;entryX=0.5;entryY=1;entryDx=0;entryDy=0;" parent="1" source="4F7vRQ4BNf0SAxyivJxw-64" target="4F7vRQ4BNf0SAxyivJxw-56" edge="1">
          <mxGeometry width="50" height="50" relative="1" as="geometry">
            <mxPoint x="698" y="1132" as="sourcePoint" />
            <mxPoint x="998.9999999999995" y="945.9999999999998" as="targetPoint" />
          </mxGeometry>
        </mxCell>
        <mxCell id="4F7vRQ4BNf0SAxyivJxw-115" value="" style="endArrow=none;html=1;rounded=0;labelBackgroundColor=default;fontFamily=Helvetica;fontSize=12;fontColor=#000000;strokeColor=#000000;shape=connector;entryX=0.5;entryY=1;entryDx=0;entryDy=0;" parent="1" target="4F7vRQ4BNf0SAxyivJxw-63" edge="1">
          <mxGeometry width="50" height="50" relative="1" as="geometry">
            <mxPoint x="115" y="1275" as="sourcePoint" />
            <mxPoint x="170" y="1193" as="targetPoint" />
          </mxGeometry>
        </mxCell>
        <mxCell id="4F7vRQ4BNf0SAxyivJxw-116" value="" style="endArrow=none;html=1;rounded=0;labelBackgroundColor=default;fontFamily=Helvetica;fontSize=12;fontColor=#000000;strokeColor=#000000;shape=connector;entryX=0.5;entryY=1;entryDx=0;entryDy=0;" parent="1" target="4F7vRQ4BNf0SAxyivJxw-65" edge="1">
          <mxGeometry width="50" height="50" relative="1" as="geometry">
            <mxPoint x="338" y="1278" as="sourcePoint" />
            <mxPoint x="173" y="1192.5" as="targetPoint" />
          </mxGeometry>
        </mxCell>
        <mxCell id="4F7vRQ4BNf0SAxyivJxw-117" value="" style="endArrow=none;html=1;rounded=0;labelBackgroundColor=default;fontFamily=Helvetica;fontSize=12;fontColor=#000000;strokeColor=#000000;shape=connector;" parent="1" edge="1">
          <mxGeometry width="50" height="50" relative="1" as="geometry">
            <mxPoint x="537" y="1276" as="sourcePoint" />
            <mxPoint x="611" y="1180" as="targetPoint" />
          </mxGeometry>
        </mxCell>
        <mxCell id="4F7vRQ4BNf0SAxyivJxw-118" value="" style="endArrow=none;html=1;rounded=0;labelBackgroundColor=default;fontFamily=Helvetica;fontSize=12;fontColor=#000000;strokeColor=#000000;shape=connector;entryX=0.5;entryY=1;entryDx=0;entryDy=0;" parent="1" target="4F7vRQ4BNf0SAxyivJxw-68" edge="1">
          <mxGeometry width="50" height="50" relative="1" as="geometry">
            <mxPoint x="834" y="1278" as="sourcePoint" />
            <mxPoint x="183" y="1202.5" as="targetPoint" />
          </mxGeometry>
        </mxCell>
        <mxCell id="4F7vRQ4BNf0SAxyivJxw-120" value="" style="endArrow=none;html=1;rounded=0;labelBackgroundColor=default;fontFamily=Helvetica;fontSize=12;fontColor=#000000;strokeColor=#000000;shape=connector;entryX=0.5;entryY=1;entryDx=0;entryDy=0;" parent="1" target="4F7vRQ4BNf0SAxyivJxw-71" edge="1">
          <mxGeometry width="50" height="50" relative="1" as="geometry">
            <mxPoint x="1447" y="1280" as="sourcePoint" />
            <mxPoint x="757.5" y="1188.5000000000002" as="targetPoint" />
          </mxGeometry>
        </mxCell>
        <mxCell id="4F7vRQ4BNf0SAxyivJxw-121" value="" style="endArrow=none;html=1;rounded=0;labelBackgroundColor=default;fontFamily=Helvetica;fontSize=12;fontColor=#000000;strokeColor=#000000;shape=connector;entryX=0.25;entryY=1;entryDx=0;entryDy=0;exitX=0.434;exitY=-0.001;exitDx=0;exitDy=0;exitPerimeter=0;" parent="1" source="4F7vRQ4BNf0SAxyivJxw-96" target="4F7vRQ4BNf0SAxyivJxw-69" edge="1">
          <mxGeometry width="50" height="50" relative="1" as="geometry">
            <mxPoint x="1457" y="1290" as="sourcePoint" />
            <mxPoint x="1353.4999999999995" y="1188.5000000000002" as="targetPoint" />
          </mxGeometry>
        </mxCell>
        <mxCell id="4F7vRQ4BNf0SAxyivJxw-122" value="" style="rounded=0;whiteSpace=wrap;html=1;fontFamily=Helvetica;fontSize=12;strokeColor=#b85450;fillColor=#f8cecc;" parent="1" vertex="1">
          <mxGeometry x="1336" y="870" width="61" height="32" as="geometry" />
        </mxCell>
        <mxCell id="4F7vRQ4BNf0SAxyivJxw-123" value="" style="rounded=0;whiteSpace=wrap;html=1;fontFamily=Helvetica;fontSize=12;fontColor=#000000;strokeColor=#000000;fillColor=default;" parent="1" vertex="1">
          <mxGeometry x="1338" y="980" width="61" height="32" as="geometry" />
        </mxCell>
        <mxCell id="4F7vRQ4BNf0SAxyivJxw-124" value="" style="rounded=0;whiteSpace=wrap;html=1;fontFamily=Helvetica;fontSize=12;strokeColor=#6c8ebf;fillColor=#dae8fc;" parent="1" vertex="1">
          <mxGeometry x="1336" y="923" width="61" height="32" as="geometry" />
        </mxCell>
        <mxCell id="4F7vRQ4BNf0SAxyivJxw-125" value="指针" style="text;html=1;align=center;verticalAlign=middle;resizable=0;points=[];autosize=1;strokeColor=none;fillColor=none;fontSize=12;fontFamily=Helvetica;fontColor=#000000;" parent="1" vertex="1">
          <mxGeometry x="1415" y="872" width="34" height="18" as="geometry" />
        </mxCell>
        <mxCell id="4F7vRQ4BNf0SAxyivJxw-126" value="数据" style="text;html=1;align=center;verticalAlign=middle;resizable=0;points=[];autosize=1;strokeColor=none;fillColor=none;fontSize=12;fontFamily=Helvetica;fontColor=#000000;" parent="1" vertex="1">
          <mxGeometry x="1407" y="929" width="34" height="18" as="geometry" />
        </mxCell>
        <mxCell id="4F7vRQ4BNf0SAxyivJxw-127" value="id主键" style="text;html=1;align=center;verticalAlign=middle;resizable=0;points=[];autosize=1;strokeColor=none;fillColor=none;fontSize=12;fontFamily=Helvetica;fontColor=#000000;" parent="1" vertex="1">
          <mxGeometry x="1407" y="986" width="43" height="18" as="geometry" />
        </mxCell>
        <mxCell id="4F7vRQ4BNf0SAxyivJxw-203" value="" style="endArrow=classic;startArrow=classic;html=1;rounded=0;labelBackgroundColor=default;fontFamily=Helvetica;fontSize=12;fontColor=#000000;strokeColor=#000000;shape=connector;exitX=1;exitY=0.5;exitDx=0;exitDy=0;" parent="1" source="4F7vRQ4BNf0SAxyivJxw-73" edge="1">
          <mxGeometry width="50" height="50" relative="1" as="geometry">
            <mxPoint x="208" y="1414" as="sourcePoint" />
            <mxPoint x="249" y="1379" as="targetPoint" />
          </mxGeometry>
        </mxCell>
        <mxCell id="4F7vRQ4BNf0SAxyivJxw-204" value="" style="endArrow=classic;startArrow=classic;html=1;rounded=0;labelBackgroundColor=default;fontFamily=Helvetica;fontSize=12;fontColor=#000000;strokeColor=#000000;shape=connector;entryX=0;entryY=0.5;entryDx=0;entryDy=0;" parent="1" target="4F7vRQ4BNf0SAxyivJxw-82" edge="1">
          <mxGeometry width="50" height="50" relative="1" as="geometry">
            <mxPoint x="375" y="1387" as="sourcePoint" />
            <mxPoint x="259" y="1389" as="targetPoint" />
          </mxGeometry>
        </mxCell>
        <mxCell id="4F7vRQ4BNf0SAxyivJxw-206" value="" style="endArrow=classic;startArrow=classic;html=1;rounded=0;labelBackgroundColor=default;fontFamily=Helvetica;fontSize=12;fontColor=#000000;strokeColor=#000000;shape=connector;entryX=0;entryY=0.5;entryDx=0;entryDy=0;" parent="1" target="4F7vRQ4BNf0SAxyivJxw-89" edge="1">
          <mxGeometry width="50" height="50" relative="1" as="geometry">
            <mxPoint x="625" y="1383" as="sourcePoint" />
            <mxPoint x="269" y="1399" as="targetPoint" />
          </mxGeometry>
        </mxCell>
        <mxCell id="4F7vRQ4BNf0SAxyivJxw-207" value="" style="endArrow=classic;startArrow=classic;html=1;rounded=0;labelBackgroundColor=default;fontFamily=Helvetica;fontSize=12;fontColor=#000000;strokeColor=#000000;shape=connector;entryX=0;entryY=0.5;entryDx=0;entryDy=0;" parent="1" target="4F7vRQ4BNf0SAxyivJxw-96" edge="1">
          <mxGeometry width="50" height="50" relative="1" as="geometry">
            <mxPoint x="899" y="1381" as="sourcePoint" />
            <mxPoint x="279" y="1409" as="targetPoint" />
          </mxGeometry>
        </mxCell>
        <mxCell id="4F7vRQ4BNf0SAxyivJxw-208" value="" style="endArrow=classic;startArrow=classic;html=1;rounded=0;labelBackgroundColor=default;fontFamily=Helvetica;fontSize=12;fontColor=#000000;strokeColor=#000000;shape=connector;entryX=0;entryY=0.5;entryDx=0;entryDy=0;" parent="1" target="4F7vRQ4BNf0SAxyivJxw-103" edge="1">
          <mxGeometry width="50" height="50" relative="1" as="geometry">
            <mxPoint x="1249" y="1381" as="sourcePoint" />
            <mxPoint x="289" y="1419" as="targetPoint" />
          </mxGeometry>
        </mxCell>
        <mxCell id="4F7vRQ4BNf0SAxyivJxw-209" value="" style="rounded=0;whiteSpace=wrap;html=1;fontFamily=Helvetica;fontSize=12;strokeColor=#d79b00;fillColor=#ffe6cc;" parent="1" vertex="1">
          <mxGeometry x="370.5" y="1594" width="84" height="54" as="geometry" />
        </mxCell>
        <mxCell id="4F7vRQ4BNf0SAxyivJxw-210" value="" style="rounded=0;whiteSpace=wrap;html=1;fontFamily=Helvetica;fontSize=12;strokeColor=#d79b00;fillColor=#ffe6cc;" parent="1" vertex="1">
          <mxGeometry x="257" y="1709" width="84" height="54" as="geometry" />
        </mxCell>
        <mxCell id="4F7vRQ4BNf0SAxyivJxw-211" value="" style="rounded=0;whiteSpace=wrap;html=1;fontFamily=Helvetica;fontSize=12;strokeColor=#d79b00;fillColor=#ffe6cc;" parent="1" vertex="1">
          <mxGeometry x="469.5" y="1709" width="84" height="54" as="geometry" />
        </mxCell>
        <mxCell id="4F7vRQ4BNf0SAxyivJxw-212" value="6" style="rounded=0;whiteSpace=wrap;html=1;fontFamily=Helvetica;fontSize=12;strokeColor=#d79b00;fillColor=#ffe6cc;" parent="1" vertex="1">
          <mxGeometry x="1026" y="1527" width="84" height="54" as="geometry" />
        </mxCell>
        <mxCell id="4F7vRQ4BNf0SAxyivJxw-213" value="4" style="rounded=0;whiteSpace=wrap;html=1;fontFamily=Helvetica;fontSize=12;strokeColor=#d79b00;fillColor=#ffe6cc;" parent="1" vertex="1">
          <mxGeometry x="827" y="1706" width="84" height="54" as="geometry" />
        </mxCell>
        <mxCell id="4F7vRQ4BNf0SAxyivJxw-214" value="7" style="rounded=0;whiteSpace=wrap;html=1;fontFamily=Helvetica;fontSize=12;strokeColor=#d79b00;fillColor=#ffe6cc;" parent="1" vertex="1">
          <mxGeometry x="1216" y="1691" width="84" height="54" as="geometry" />
        </mxCell>
        <mxCell id="4F7vRQ4BNf0SAxyivJxw-216" value="3" style="rounded=0;whiteSpace=wrap;html=1;fontFamily=Helvetica;fontSize=12;strokeColor=#d79b00;fillColor=#ffe6cc;" parent="1" vertex="1">
          <mxGeometry x="725" y="1857" width="84" height="54" as="geometry" />
        </mxCell>
        <mxCell id="4F7vRQ4BNf0SAxyivJxw-217" value="5" style="rounded=0;whiteSpace=wrap;html=1;fontFamily=Helvetica;fontSize=12;strokeColor=#d79b00;fillColor=#ffe6cc;" parent="1" vertex="1">
          <mxGeometry x="937.5" y="1857" width="84" height="54" as="geometry" />
        </mxCell>
        <mxCell id="4F7vRQ4BNf0SAxyivJxw-220" value="9" style="rounded=0;whiteSpace=wrap;html=1;fontFamily=Helvetica;fontSize=12;strokeColor=#d79b00;fillColor=#ffe6cc;" parent="1" vertex="1">
          <mxGeometry x="1323" y="1855" width="84" height="54" as="geometry" />
        </mxCell>
        <mxCell id="4F7vRQ4BNf0SAxyivJxw-222" value="" style="endArrow=none;html=1;rounded=0;labelBackgroundColor=default;fontFamily=Helvetica;fontSize=12;fontColor=#000000;strokeColor=#000000;shape=connector;entryX=0.5;entryY=0;entryDx=0;entryDy=0;" parent="1" target="4F7vRQ4BNf0SAxyivJxw-210" edge="1">
          <mxGeometry width="50" height="50" relative="1" as="geometry">
            <mxPoint x="401" y="1649" as="sourcePoint" />
            <mxPoint x="306" y="1698" as="targetPoint" />
          </mxGeometry>
        </mxCell>
        <mxCell id="4F7vRQ4BNf0SAxyivJxw-223" value="" style="endArrow=none;html=1;rounded=0;labelBackgroundColor=default;fontFamily=Helvetica;fontSize=12;fontColor=#000000;strokeColor=#000000;shape=connector;exitX=0.75;exitY=1;exitDx=0;exitDy=0;entryX=0.25;entryY=0;entryDx=0;entryDy=0;" parent="1" source="4F7vRQ4BNf0SAxyivJxw-209" target="4F7vRQ4BNf0SAxyivJxw-211" edge="1">
          <mxGeometry width="50" height="50" relative="1" as="geometry">
            <mxPoint x="385.1558441558441" y="1658" as="sourcePoint" />
            <mxPoint x="316" y="1708" as="targetPoint" />
          </mxGeometry>
        </mxCell>
        <mxCell id="4F7vRQ4BNf0SAxyivJxw-224" value="" style="endArrow=none;html=1;rounded=0;labelBackgroundColor=default;fontFamily=Helvetica;fontSize=12;fontColor=#000000;strokeColor=#000000;shape=connector;entryX=0.643;entryY=0.031;entryDx=0;entryDy=0;exitX=0.385;exitY=1.074;exitDx=0;exitDy=0;exitPerimeter=0;entryPerimeter=0;" parent="1" source="4F7vRQ4BNf0SAxyivJxw-212" target="4F7vRQ4BNf0SAxyivJxw-213" edge="1">
          <mxGeometry width="50" height="50" relative="1" as="geometry">
            <mxPoint x="411" y="1659" as="sourcePoint" />
            <mxPoint x="309" y="1719" as="targetPoint" />
          </mxGeometry>
        </mxCell>
        <mxCell id="4F7vRQ4BNf0SAxyivJxw-225" value="" style="endArrow=none;html=1;rounded=0;labelBackgroundColor=default;fontFamily=Helvetica;fontSize=12;fontColor=#000000;strokeColor=#000000;shape=connector;exitX=0.639;exitY=1;exitDx=0;exitDy=0;exitPerimeter=0;" parent="1" source="4F7vRQ4BNf0SAxyivJxw-212" target="4F7vRQ4BNf0SAxyivJxw-214" edge="1">
          <mxGeometry width="50" height="50" relative="1" as="geometry">
            <mxPoint x="1068.3400000000001" y="1594.996" as="sourcePoint" />
            <mxPoint x="891.0120000000002" y="1717.674" as="targetPoint" />
          </mxGeometry>
        </mxCell>
        <mxCell id="4F7vRQ4BNf0SAxyivJxw-226" value="" style="endArrow=none;html=1;rounded=0;labelBackgroundColor=default;fontFamily=Helvetica;fontSize=12;fontColor=#000000;strokeColor=#000000;shape=connector;entryX=0.25;entryY=0;entryDx=0;entryDy=0;exitX=0.5;exitY=1;exitDx=0;exitDy=0;" parent="1" source="4F7vRQ4BNf0SAxyivJxw-213" target="4F7vRQ4BNf0SAxyivJxw-216" edge="1">
          <mxGeometry width="50" height="50" relative="1" as="geometry">
            <mxPoint x="1068.3400000000001" y="1594.996" as="sourcePoint" />
            <mxPoint x="891.0120000000002" y="1717.674" as="targetPoint" />
          </mxGeometry>
        </mxCell>
        <mxCell id="4F7vRQ4BNf0SAxyivJxw-228" value="" style="endArrow=none;html=1;rounded=0;labelBackgroundColor=default;fontFamily=Helvetica;fontSize=12;fontColor=#000000;strokeColor=#000000;shape=connector;exitX=0.75;exitY=1;exitDx=0;exitDy=0;" parent="1" source="4F7vRQ4BNf0SAxyivJxw-214" edge="1">
          <mxGeometry width="50" height="50" relative="1" as="geometry">
            <mxPoint x="1088.3400000000001" y="1614.996" as="sourcePoint" />
            <mxPoint x="1374" y="1854" as="targetPoint" />
          </mxGeometry>
        </mxCell>
        <mxCell id="4F7vRQ4BNf0SAxyivJxw-229" value="" style="endArrow=none;html=1;rounded=0;labelBackgroundColor=default;fontFamily=Helvetica;fontSize=12;fontColor=#000000;strokeColor=#000000;shape=connector;exitX=0.75;exitY=1;exitDx=0;exitDy=0;" parent="1" source="4F7vRQ4BNf0SAxyivJxw-213" target="4F7vRQ4BNf0SAxyivJxw-217" edge="1">
          <mxGeometry width="50" height="50" relative="1" as="geometry">
            <mxPoint x="1098.3400000000001" y="1624.996" as="sourcePoint" />
            <mxPoint x="921.0120000000002" y="1747.674" as="targetPoint" />
          </mxGeometry>
        </mxCell>
        <mxCell id="4F7vRQ4BNf0SAxyivJxw-230" value="&lt;font style=&quot;font-size: 20px;&quot;&gt;二叉树&lt;/font&gt;" style="text;html=1;align=center;verticalAlign=middle;resizable=0;points=[];autosize=1;strokeColor=none;fillColor=none;fontSize=12;fontFamily=Helvetica;fontColor=#000000;" parent="1" vertex="1">
          <mxGeometry x="310" y="1875" width="70" height="21" as="geometry" />
        </mxCell>
        <mxCell id="4F7vRQ4BNf0SAxyivJxw-232" value="&lt;span style=&quot;color: rgb(0, 0, 0); font-family: Helvetica; font-size: 20px; font-style: normal; font-variant-ligatures: normal; font-variant-caps: normal; font-weight: 400; letter-spacing: normal; orphans: 2; text-align: center; text-indent: 0px; text-transform: none; widows: 2; word-spacing: 0px; -webkit-text-stroke-width: 0px; background-color: rgb(248, 249, 250); text-decoration-thickness: initial; text-decoration-style: initial; text-decoration-color: initial; float: none; display: inline !important;&quot;&gt;二叉查找树&lt;/span&gt;" style="text;whiteSpace=wrap;html=1;fontSize=20;fontFamily=Helvetica;fontColor=#000000;" parent="1" vertex="1">
          <mxGeometry x="1066.67" y="1939.33" width="122.33" height="24.67" as="geometry" />
        </mxCell>
        <mxCell id="4F7vRQ4BNf0SAxyivJxw-233" value="1" style="rounded=0;whiteSpace=wrap;html=1;fontFamily=Helvetica;fontSize=12;strokeColor=#d79b00;fillColor=#ffe6cc;" parent="1" vertex="1">
          <mxGeometry x="370.5" y="2101" width="84" height="54" as="geometry" />
        </mxCell>
        <mxCell id="4F7vRQ4BNf0SAxyivJxw-234" value="2" style="rounded=0;whiteSpace=wrap;html=1;fontFamily=Helvetica;fontSize=12;strokeColor=#d79b00;fillColor=#ffe6cc;" parent="1" vertex="1">
          <mxGeometry x="469.5" y="2216" width="84" height="54" as="geometry" />
        </mxCell>
        <mxCell id="4F7vRQ4BNf0SAxyivJxw-235" value="" style="endArrow=none;html=1;rounded=0;labelBackgroundColor=default;fontFamily=Helvetica;fontSize=12;fontColor=#000000;strokeColor=#000000;shape=connector;exitX=0.75;exitY=1;exitDx=0;exitDy=0;entryX=0.25;entryY=0;entryDx=0;entryDy=0;" parent="1" source="4F7vRQ4BNf0SAxyivJxw-233" target="4F7vRQ4BNf0SAxyivJxw-234" edge="1">
          <mxGeometry width="50" height="50" relative="1" as="geometry">
            <mxPoint x="385.1558441558441" y="2165" as="sourcePoint" />
            <mxPoint x="316" y="2215" as="targetPoint" />
          </mxGeometry>
        </mxCell>
        <mxCell id="4F7vRQ4BNf0SAxyivJxw-236" value="3" style="rounded=0;whiteSpace=wrap;html=1;fontFamily=Helvetica;fontSize=12;strokeColor=#d79b00;fillColor=#ffe6cc;" parent="1" vertex="1">
          <mxGeometry x="538.5" y="2334" width="84" height="54" as="geometry" />
        </mxCell>
        <mxCell id="4F7vRQ4BNf0SAxyivJxw-237" value="4" style="rounded=0;whiteSpace=wrap;html=1;fontFamily=Helvetica;fontSize=12;strokeColor=#d79b00;fillColor=#ffe6cc;" parent="1" vertex="1">
          <mxGeometry x="637.5" y="2449" width="84" height="54" as="geometry" />
        </mxCell>
        <mxCell id="4F7vRQ4BNf0SAxyivJxw-238" value="" style="endArrow=none;html=1;rounded=0;labelBackgroundColor=default;fontFamily=Helvetica;fontSize=12;fontColor=#000000;strokeColor=#000000;shape=connector;exitX=0.75;exitY=1;exitDx=0;exitDy=0;entryX=0.25;entryY=0;entryDx=0;entryDy=0;" parent="1" source="4F7vRQ4BNf0SAxyivJxw-236" target="4F7vRQ4BNf0SAxyivJxw-237" edge="1">
          <mxGeometry width="50" height="50" relative="1" as="geometry">
            <mxPoint x="553.1558441558441" y="2398" as="sourcePoint" />
            <mxPoint x="484" y="2448" as="targetPoint" />
          </mxGeometry>
        </mxCell>
        <mxCell id="4F7vRQ4BNf0SAxyivJxw-239" value="" style="endArrow=none;html=1;rounded=0;labelBackgroundColor=default;fontFamily=Helvetica;fontSize=12;fontColor=#000000;strokeColor=#000000;shape=connector;exitX=0.75;exitY=1;exitDx=0;exitDy=0;entryX=0.5;entryY=0;entryDx=0;entryDy=0;" parent="1" source="4F7vRQ4BNf0SAxyivJxw-234" target="4F7vRQ4BNf0SAxyivJxw-236" edge="1">
          <mxGeometry width="50" height="50" relative="1" as="geometry">
            <mxPoint x="535.5" y="2280" as="sourcePoint" />
            <mxPoint x="573.5" y="2324" as="targetPoint" />
          </mxGeometry>
        </mxCell>
        <mxCell id="4F7vRQ4BNf0SAxyivJxw-240" value="2" style="rounded=0;whiteSpace=wrap;html=1;fontFamily=Helvetica;fontSize=12;strokeColor=#d79b00;fillColor=#ffe6cc;" parent="1" vertex="1">
          <mxGeometry x="1200" y="2121" width="84" height="54" as="geometry" />
        </mxCell>
        <mxCell id="4F7vRQ4BNf0SAxyivJxw-241" value="1" style="rounded=0;whiteSpace=wrap;html=1;fontFamily=Helvetica;fontSize=12;strokeColor=#d79b00;fillColor=#ffe6cc;" parent="1" vertex="1">
          <mxGeometry x="1001" y="2300" width="84" height="54" as="geometry" />
        </mxCell>
        <mxCell id="4F7vRQ4BNf0SAxyivJxw-242" value="3" style="rounded=0;whiteSpace=wrap;html=1;fontFamily=Helvetica;fontSize=12;strokeColor=#d79b00;fillColor=#ffe6cc;" parent="1" vertex="1">
          <mxGeometry x="1390" y="2285" width="84" height="54" as="geometry" />
        </mxCell>
        <mxCell id="4F7vRQ4BNf0SAxyivJxw-245" value="4" style="rounded=0;whiteSpace=wrap;html=1;fontFamily=Helvetica;fontSize=12;strokeColor=#d79b00;fillColor=#ffe6cc;" parent="1" vertex="1">
          <mxGeometry x="1497" y="2449" width="84" height="54" as="geometry" />
        </mxCell>
        <mxCell id="4F7vRQ4BNf0SAxyivJxw-246" value="" style="endArrow=none;html=1;rounded=0;labelBackgroundColor=default;fontFamily=Helvetica;fontSize=12;fontColor=#000000;strokeColor=#000000;shape=connector;entryX=0.643;entryY=0.031;entryDx=0;entryDy=0;exitX=0.385;exitY=1.074;exitDx=0;exitDy=0;exitPerimeter=0;entryPerimeter=0;" parent="1" source="4F7vRQ4BNf0SAxyivJxw-240" target="4F7vRQ4BNf0SAxyivJxw-241" edge="1">
          <mxGeometry width="50" height="50" relative="1" as="geometry">
            <mxPoint x="585" y="2253" as="sourcePoint" />
            <mxPoint x="483" y="2313" as="targetPoint" />
          </mxGeometry>
        </mxCell>
        <mxCell id="4F7vRQ4BNf0SAxyivJxw-247" value="" style="endArrow=none;html=1;rounded=0;labelBackgroundColor=default;fontFamily=Helvetica;fontSize=12;fontColor=#000000;strokeColor=#000000;shape=connector;exitX=0.639;exitY=1;exitDx=0;exitDy=0;exitPerimeter=0;" parent="1" source="4F7vRQ4BNf0SAxyivJxw-240" target="4F7vRQ4BNf0SAxyivJxw-242" edge="1">
          <mxGeometry width="50" height="50" relative="1" as="geometry">
            <mxPoint x="1242.3400000000001" y="2188.996" as="sourcePoint" />
            <mxPoint x="1065.0120000000002" y="2311.674" as="targetPoint" />
          </mxGeometry>
        </mxCell>
        <mxCell id="4F7vRQ4BNf0SAxyivJxw-249" value="" style="endArrow=none;html=1;rounded=0;labelBackgroundColor=default;fontFamily=Helvetica;fontSize=12;fontColor=#000000;strokeColor=#000000;shape=connector;exitX=0.75;exitY=1;exitDx=0;exitDy=0;" parent="1" source="4F7vRQ4BNf0SAxyivJxw-242" edge="1">
          <mxGeometry width="50" height="50" relative="1" as="geometry">
            <mxPoint x="1262.3400000000001" y="2208.996" as="sourcePoint" />
            <mxPoint x="1548" y="2448" as="targetPoint" />
          </mxGeometry>
        </mxCell>
        <mxCell id="4F7vRQ4BNf0SAxyivJxw-251" value="&lt;span style=&quot;color: rgb(0, 0, 0); font-family: Helvetica; font-size: 20px; font-style: normal; font-variant-ligatures: normal; font-variant-caps: normal; font-weight: 400; letter-spacing: normal; orphans: 2; text-align: center; text-indent: 0px; text-transform: none; widows: 2; word-spacing: 0px; -webkit-text-stroke-width: 0px; background-color: rgb(248, 249, 250); text-decoration-thickness: initial; text-decoration-style: initial; text-decoration-color: initial; float: none; display: inline !important;&quot;&gt;斜树&lt;/span&gt;" style="text;whiteSpace=wrap;html=1;fontSize=20;fontFamily=Helvetica;fontColor=#000000;" parent="1" vertex="1">
          <mxGeometry x="376" y="2474" width="80" height="38" as="geometry" />
        </mxCell>
        <mxCell id="4F7vRQ4BNf0SAxyivJxw-252" value="&lt;span style=&quot;color: rgb(0, 0, 0); font-family: Helvetica; font-size: 20px; font-style: normal; font-variant-ligatures: normal; font-variant-caps: normal; font-weight: 400; letter-spacing: normal; orphans: 2; text-align: center; text-indent: 0px; text-transform: none; widows: 2; word-spacing: 0px; -webkit-text-stroke-width: 0px; background-color: rgb(248, 249, 250); text-decoration-thickness: initial; text-decoration-style: initial; text-decoration-color: initial; float: none; display: inline !important;&quot;&gt;平衡二叉树&lt;/span&gt;" style="text;whiteSpace=wrap;html=1;fontSize=20;fontFamily=Helvetica;fontColor=#000000;" parent="1" vertex="1">
          <mxGeometry x="1209.33" y="2492.67" width="145.67" height="32.33" as="geometry" />
        </mxCell>
        <mxCell id="4F7vRQ4BNf0SAxyivJxw-253" value="张三_23" style="rounded=0;whiteSpace=wrap;html=1;fontFamily=Helvetica;fontSize=20;strokeColor=#d79b00;fillColor=#ffe6cc;" parent="1" vertex="1">
          <mxGeometry x="229" y="2889" width="120" height="60" as="geometry" />
        </mxCell>
        <mxCell id="4F7vRQ4BNf0SAxyivJxw-254" value="2" style="rounded=0;whiteSpace=wrap;html=1;fontFamily=Helvetica;fontSize=20;fontColor=#000000;strokeColor=#000000;fillColor=default;" parent="1" vertex="1">
          <mxGeometry x="229" y="2949" width="120" height="60" as="geometry" />
        </mxCell>
        <mxCell id="4F7vRQ4BNf0SAxyivJxw-255" value="&lt;span style=&quot;&quot;&gt;李四_12&lt;/span&gt;" style="rounded=0;whiteSpace=wrap;html=1;fontFamily=Helvetica;fontSize=20;strokeColor=#d79b00;fillColor=#ffe6cc;" parent="1" vertex="1">
          <mxGeometry x="427" y="2886" width="120" height="60" as="geometry" />
        </mxCell>
        <mxCell id="4F7vRQ4BNf0SAxyivJxw-256" value="4" style="rounded=0;whiteSpace=wrap;html=1;fontFamily=Helvetica;fontSize=20;fontColor=#000000;strokeColor=#000000;fillColor=default;" parent="1" vertex="1">
          <mxGeometry x="427" y="2946" width="120" height="60" as="geometry" />
        </mxCell>
        <mxCell id="4F7vRQ4BNf0SAxyivJxw-257" value="yyb,12,173" style="rounded=0;whiteSpace=wrap;html=1;fontFamily=Helvetica;fontSize=20;strokeColor=#d79b00;fillColor=#ffe6cc;" parent="1" vertex="1">
          <mxGeometry x="637" y="3250" width="120" height="60" as="geometry" />
        </mxCell>
        <mxCell id="4F7vRQ4BNf0SAxyivJxw-258" value="6" style="rounded=0;whiteSpace=wrap;html=1;fontFamily=Helvetica;fontSize=20;fontColor=#000000;strokeColor=#000000;fillColor=default;" parent="1" vertex="1">
          <mxGeometry x="637" y="3310" width="120" height="60" as="geometry" />
        </mxCell>
        <mxCell id="4F7vRQ4BNf0SAxyivJxw-262" value="5" style="rounded=0;whiteSpace=wrap;html=1;fontFamily=Helvetica;fontSize=20;fontColor=#000000;strokeColor=#000000;fillColor=default;" parent="1" vertex="1">
          <mxGeometry x="530" y="3115" width="82.5" height="47" as="geometry" />
        </mxCell>
        <mxCell id="4F7vRQ4BNf0SAxyivJxw-264" value="P" style="rounded=0;whiteSpace=wrap;html=1;fontFamily=Helvetica;fontSize=20;fontColor=#000000;strokeColor=#000000;fillColor=default;" parent="1" vertex="1">
          <mxGeometry x="613" y="3115" width="82" height="47" as="geometry" />
        </mxCell>
        <mxCell id="4F7vRQ4BNf0SAxyivJxw-265" value="P" style="rounded=0;whiteSpace=wrap;html=1;fontFamily=Helvetica;fontSize=20;fontColor=#000000;strokeColor=#000000;fillColor=default;" parent="1" vertex="1">
          <mxGeometry x="447.5" y="3115" width="82.5" height="47" as="geometry" />
        </mxCell>
        <mxCell id="4F7vRQ4BNf0SAxyivJxw-266" value="" style="endArrow=none;html=1;rounded=0;labelBackgroundColor=default;fontFamily=Helvetica;fontSize=20;fontColor=#000000;strokeColor=#000000;shape=connector;" parent="1" edge="1">
          <mxGeometry width="50" height="50" relative="1" as="geometry">
            <mxPoint x="674" y="3247" as="sourcePoint" />
            <mxPoint x="621" y="3160" as="targetPoint" />
          </mxGeometry>
        </mxCell>
        <mxCell id="4F7vRQ4BNf0SAxyivJxw-267" value="data&amp;nbsp;" style="rounded=0;whiteSpace=wrap;html=1;fontFamily=Helvetica;fontSize=20;strokeColor=#d79b00;fillColor=#ffe6cc;" parent="1" vertex="1">
          <mxGeometry x="385" y="3250" width="120" height="60" as="geometry" />
        </mxCell>
        <mxCell id="4F7vRQ4BNf0SAxyivJxw-268" value="主键id" style="rounded=0;whiteSpace=wrap;html=1;fontFamily=Helvetica;fontSize=20;fontColor=#000000;strokeColor=#000000;fillColor=default;" parent="1" vertex="1">
          <mxGeometry x="385" y="3310" width="120" height="60" as="geometry" />
        </mxCell>
        <mxCell id="4F7vRQ4BNf0SAxyivJxw-269" value="" style="endArrow=classic;startArrow=classic;html=1;rounded=0;labelBackgroundColor=default;fontFamily=Helvetica;fontSize=20;fontColor=#000000;strokeColor=#000000;shape=connector;exitX=1;exitY=0.25;exitDx=0;exitDy=0;entryX=0;entryY=0.25;entryDx=0;entryDy=0;" parent="1" source="4F7vRQ4BNf0SAxyivJxw-268" target="4F7vRQ4BNf0SAxyivJxw-258" edge="1">
          <mxGeometry width="50" height="50" relative="1" as="geometry">
            <mxPoint x="526.5" y="3324" as="sourcePoint" />
            <mxPoint x="637.5" y="3318" as="targetPoint" />
          </mxGeometry>
        </mxCell>
        <mxCell id="4F7vRQ4BNf0SAxyivJxw-270" value="" style="endArrow=none;html=1;rounded=0;labelBackgroundColor=default;fontFamily=Helvetica;fontSize=20;fontColor=#000000;strokeColor=#000000;shape=connector;exitX=0.378;exitY=-0.028;exitDx=0;exitDy=0;exitPerimeter=0;entryX=0.64;entryY=0.972;entryDx=0;entryDy=0;entryPerimeter=0;" parent="1" source="4F7vRQ4BNf0SAxyivJxw-267" target="4F7vRQ4BNf0SAxyivJxw-265" edge="1">
          <mxGeometry width="50" height="50" relative="1" as="geometry">
            <mxPoint x="684" y="3257" as="sourcePoint" />
            <mxPoint x="631" y="3170" as="targetPoint" />
          </mxGeometry>
        </mxCell>
        <mxCell id="4F7vRQ4BNf0SAxyivJxw-271" value="yyb_12" style="rounded=0;whiteSpace=wrap;html=1;fontFamily=Helvetica;fontSize=20;strokeColor=#d79b00;fillColor=#ffe6cc;" parent="1" vertex="1">
          <mxGeometry x="650" y="2884" width="120" height="60" as="geometry" />
        </mxCell>
        <mxCell id="4F7vRQ4BNf0SAxyivJxw-272" value="4" style="rounded=0;whiteSpace=wrap;html=1;fontFamily=Helvetica;fontSize=20;fontColor=#000000;strokeColor=#000000;fillColor=default;" parent="1" vertex="1">
          <mxGeometry x="650" y="2944" width="120" height="60" as="geometry" />
        </mxCell>
        <mxCell id="4F7vRQ4BNf0SAxyivJxw-273" value="" style="endArrow=classic;startArrow=classic;html=1;rounded=0;labelBackgroundColor=default;fontFamily=Helvetica;fontSize=20;fontColor=#000000;strokeColor=#000000;shape=connector;" parent="1" edge="1">
          <mxGeometry width="50" height="50" relative="1" as="geometry">
            <mxPoint x="352" y="2944" as="sourcePoint" />
            <mxPoint x="425" y="2944" as="targetPoint" />
          </mxGeometry>
        </mxCell>
        <mxCell id="4F7vRQ4BNf0SAxyivJxw-274" value="" style="endArrow=classic;startArrow=classic;html=1;rounded=0;labelBackgroundColor=default;fontFamily=Helvetica;fontSize=20;fontColor=#000000;strokeColor=#000000;shape=connector;" parent="1" edge="1">
          <mxGeometry width="50" height="50" relative="1" as="geometry">
            <mxPoint x="545" y="2942" as="sourcePoint" />
            <mxPoint x="646" y="2942" as="targetPoint" />
          </mxGeometry>
        </mxCell>
      </root>
    </mxGraphModel>
  </diagram>
</mxfile>
